<?xml version="1.0" encoding="UTF-8"?>
<svg id="Layer_1" data-name="Layer 1" xmlns="http://www.w3.org/2000/svg" viewBox="0 0 1791.42 1128.15">
  <defs>
    <style>
      .cls-1 {
        fill: #e6e6e6;
      }

      .cls-1, .cls-2, .cls-3, .cls-4, .cls-5 {
        stroke: #000;
        stroke-miterlimit: 10;
      }

      .cls-2 {
        fill: #ccc;
      }

      .cls-3 {
        fill: #999;
      }

      .cls-4 {
        fill: #b3b3b3;
      }

      .cls-5 {
        fill: #f2f2f2;
      }
    </style>
  </defs>
  <path class="cls-5" d="M862.68,181.29c231.19,11.37,175.42-203.79,411.93-178.76,222.95,23.6,301.27,162.13,353.18,287.14,32.59,78.47,47.77,150.52,35.83,174.61-126,254.18-1205.71,187.91-1551.37,29.49-107.7-49.36-45.12-184.05,92.9-276.07,135.5-90.35,536.25-42.38,657.53-36.41Z"/>
  <path class="cls-1" d="M941.22,280.5c-244.03,10.94-185.16-196.08-434.8-172-235.33,22.7-318,156-372.79,276.28-34.4,75.5-50.43,144.82-37.82,168,133,244.56,1272.66,180.8,1637.51,28.38,113.68-47.49,47.63-177.08-98.05-265.63-143.03-86.93-566.03-40.77-694.04-35.03Z"/>
  <path class="cls-2" d="M1133.78,346.06c-244.03,10.94-235.02,164.07-484.67,188.15-235.33,22.7-423.84-68.22-515.49-13.62-71.28,42.46-50.43,144.82-37.82,168,133,244.56,1272.66,180.8,1637.51,28.38,113.68-47.49,47.63-177.08-98.05-265.63-143.03-86.93-373.47-111.03-501.48-105.29Z"/>
  <path class="cls-4" d="M708.42,419.5c232.28,12.85,223.7,192.71,461.33,221,224,26.67,403.43-80.13,490.67-16,67.85,49.88,48,170.11,36,197.33-126.59,287.26-1211.38,212.37-1558.67,33.33-108.21-55.78-45.33-208,93.33-312,136.14-102.1,355.49-130.41,477.33-123.67Z"/>
  <path class="cls-3" d="M598.31,555.17c232.28,12.85,323.7,113.04,561.33,141.33,224,26.67,351.43-240.13,438.67-176,67.85,49.88,210.67,206.3,60,430.67-175,260.61-1220.72,201.7-1568,22.67-108.21-55.78-132.85-234.3,5.81-338.3,136.14-102.1,380.34-87.11,502.19-80.36Z"/>
</svg>